<svg xmlns="http://www.w3.org/2000/svg" width="24" height="24" viewBox="0 0 32 32">
<path class="background" fill="#FFF" d="M16 31.625C7.385 31.625.375 24.615.375 16 .375 7.384 7.385.375 16 .375S31.625 7.384 31.625 16c0 8.615-7.01 15.625-15.625 15.625z"/>
<path class="circle" fill="#e8e8e8" d="M16 .75C24.409.75 31.25 7.591 31.25 16S24.409 31.25 16 31.25.75 24.409.75 16 7.591.75 16 .75M16 0C7.163 0 0 7.163 0 16c0 8.836 7.163 16 16 16s16-7.164 16-16c0-8.837-7.163-16-16-16z"/>
<path class="figure" fill="#828282" d="M21.705 22.647h2.942c0-8.434-6.861-15.3-15.294-15.3v2.934c6.81 0 12.352 5.548 12.352 12.366zm-10.315.005c1.128 0 2.039-.906 2.039-2.029 0-1.117-.911-2.033-2.039-2.033-1.123 0-2.036.916-2.036 2.033-.001 1.123.912 2.029 2.036 2.029zm5.116-.004h2.945c0-5.57-4.531-10.101-10.099-10.101v2.933c1.91 0 3.705.746 5.057 2.1 1.352 1.349 2.097 3.152 2.097 5.068z"/>
</svg>
